<svg width="32" height="32" viewBox="0 0 32 32" xmlns="http://www.w3.org/2000/svg">
<path d="M27.3093 4.68628C24.2878 1.66431 20.2705 0 15.9976 0C11.7244 0 7.70703 1.66431 4.68555 4.68628C1.66406 7.70825 0 11.7263 0 16C0 18.9402 0.804443 21.8149 2.32617 24.3132C2.46094 24.5344 2.74951 24.6045 2.97046 24.4697C3.19165 24.335 3.26147 24.0466 3.12695 23.8257C1.69458 21.4744 0.9375 18.7681 0.9375 16C0.9375 11.9766 2.50391 8.19409 5.34839 5.34912C8.19287 2.50415 11.9749 0.9375 15.9976 0.9375C20.02 0.9375 23.802 2.50415 26.6465 5.34912C29.491 8.19409 31.0574 11.9768 31.0574 16C31.0574 20.0232 29.491 23.8059 26.6465 26.6509C23.802 29.4958 20.02 31.0625 15.9976 31.0625C11.3794 31.0625 7.08057 28.9866 4.20312 25.3672C4.04199 25.1646 3.74683 25.1309 3.54443 25.292C3.3418 25.4531 3.30811 25.748 3.46924 25.9507C6.52563 29.7952 11.092 32 15.9976 32C20.2705 32 24.2878 30.3357 27.3093 27.3137C30.3308 24.2917 31.9949 20.2737 31.9949 16C31.9949 11.7263 30.3308 7.70825 27.3093 4.68628Z"/>
<path d="M13.4288 13.2885L15.0372 12.0774C15.2896 11.8872 15.4215 11.5752 15.3817 11.2632C15.327 10.8349 15.3023 10.3987 15.3084 9.96628C15.3214 9.03952 14.6192 8.21335 13.71 8.08542L12.3087 7.88791C11.3599 7.75437 10.4818 8.00827 9.83601 8.60324C9.18928 9.19919 8.86384 10.0549 8.91975 11.0129C9.00422 12.4663 9.29255 13.9001 9.77644 15.2751C10.8572 18.3464 12.8306 20.9675 15.4832 22.8552C16.6705 23.7002 17.9688 24.3738 19.3421 24.8567C19.7098 24.9861 20.0787 25.0503 20.4376 25.0503C20.9617 25.0503 21.4644 24.9131 21.9102 24.6421C22.6607 24.1858 23.1478 23.4118 23.2813 22.4629L23.4747 21.0903C23.6031 20.1801 22.9923 19.2446 22.1134 19.0051C21.701 18.8928 21.2933 18.7505 20.9012 18.582C20.6031 18.4541 20.2567 18.4963 19.9971 18.6919L18.4014 19.8935C18.2613 19.999 18.0706 20.0046 17.9271 19.9074C17.0213 19.2954 16.2039 18.5595 15.4971 17.7204C15.3304 17.5224 15.0345 17.497 14.8367 17.6638C14.6387 17.8305 14.6134 18.1262 14.7801 18.3242C15.5426 19.2297 16.4246 20.0237 17.4022 20.6843C17.8773 21.0056 18.5057 20.9887 18.9654 20.6423L20.5479 19.4507C20.9749 19.633 21.4185 19.7873 21.8668 19.9096C22.2913 20.0254 22.609 20.5161 22.5465 20.9597L22.3531 22.332C22.2594 22.9975 21.929 23.5334 21.4232 23.841C20.9166 24.1489 20.2879 24.1955 19.6529 23.9721C18.3626 23.5183 17.1427 22.8855 16.0267 22.0915C13.5325 20.3164 11.6771 17.8518 10.6607 14.9638C10.2061 13.6716 9.93513 12.3239 9.85554 10.9582C9.81647 10.2861 10.035 9.69455 10.471 9.2927C10.9066 8.89157 11.5123 8.72239 12.1778 8.81614L13.5792 9.01365C14.0147 9.07492 14.3773 9.50534 14.3709 9.9531C14.3646 10.4179 14.3902 10.8869 14.4476 11.3479L12.8651 12.5395C12.4053 12.8857 12.2154 13.4848 12.3926 14.0305C12.6661 14.8711 13.0289 15.687 13.4708 16.4553C13.5999 16.6797 13.8865 16.7568 14.1109 16.6279C14.3353 16.4988 14.4124 16.2121 14.2835 15.9878C13.8736 15.2756 13.5374 14.5197 13.2845 13.7407C13.2308 13.5757 13.2889 13.394 13.4288 13.2885Z"/>
</svg>
